<svg width="48" height="20" viewBox="0 0 48 20" fill="none" xmlns="http://www.w3.org/2000/svg">
<path d="M23.8107 9.27942C24.5472 9.52489 26.1497 10.059 26.5047 8.94395C26.8671 7.80304 25.3058 7.35382 24.5413 7.13387C24.4547 7.10895 24.3783 7.08695 24.3161 7.06725L23.6315 9.22066C23.6829 9.23682 23.7431 9.25691 23.8107 9.27942Z" fill="white"/>
<path d="M22.7415 12.7486C23.6237 13.041 25.5531 13.6807 25.9435 12.4519C26.3429 11.1956 24.4675 10.6513 23.5524 10.3857C23.4503 10.3561 23.3598 10.3299 23.2862 10.3066L22.5312 12.6798C22.5916 12.6989 22.6625 12.7224 22.7415 12.7486Z" fill="white"/>
<path fill-rule="evenodd" clip-rule="evenodd" d="M33.9791 10.6251C33.6339 16.1369 28.886 20.3253 23.3744 19.9801C17.8628 19.6349 13.6747 14.8868 14.0199 9.37493C14.3651 3.86307 19.113 -0.325323 24.6246 0.0198963C30.1362 0.365115 34.3244 5.11321 33.9791 10.6251ZM26.6293 6.44221C27.9877 7.00589 28.9584 7.78334 28.676 9.09934C28.4704 10.0631 27.8996 10.4997 27.1702 10.6194C28.1248 11.1928 28.4002 12.185 28.0142 13.3396C27.3151 14.9922 25.8961 15.0462 24.0426 14.5755L23.4734 16.3634L22.3911 16.0212L22.9526 14.2573C22.6719 14.1689 22.3854 14.0752 22.0903 13.9759L21.5265 15.7485L20.4455 15.4064L21.0143 13.6147L18.8347 12.9194L19.4595 11.6994C19.4595 11.6994 20.2567 11.9642 20.2464 11.9479C20.5529 12.0441 20.704 11.8506 20.7669 11.7199L22.3098 6.86701C22.3382 6.63512 22.2758 6.33679 21.8373 6.19782C21.855 6.18702 21.051 5.94999 21.051 5.94999L21.4168 4.79833L23.6002 5.48447L24.1639 3.71313L25.2456 4.05526L24.6934 5.79162C24.9849 5.8769 25.2776 5.96352 25.5619 6.05337L26.1102 4.32804L27.1925 4.67021L26.6293 6.44221Z" fill="white"/>
</svg>
