<svg width="48" height="20" viewBox="0 0 48 20" fill="none" xmlns="http://www.w3.org/2000/svg">
<path d="M38.4012 18.9893C40.4219 18.9893 41.3729 18.2183 42.2037 15.8811L45.8431 5.67336H43.7359L41.2954 13.5707H41.2526L38.8121 5.68406H36.6452L40.1562 15.3998L39.9682 15.9908C39.8354 16.8367 39.0759 17.4401 38.2211 17.3777C38.058 17.3777 37.7416 17.3608 37.6132 17.3438V18.9483C37.8744 18.9839 38.1382 19.0009 38.4012 19V18.9893ZM31.3791 13.8774C30.2738 13.8774 29.5723 13.3426 29.5723 12.5332C29.5723 11.6944 30.2489 11.206 31.5422 11.1284L33.8455 10.9831V11.7372C33.7947 12.9798 32.7455 13.9469 31.503 13.8961C31.4611 13.8943 31.4201 13.8907 31.3791 13.8872V13.8774ZM30.8229 15.4613C32.077 15.4952 33.25 14.8418 33.8802 13.757H33.923V15.3615H35.8412V8.71644C35.8412 6.78933 34.3001 5.54768 31.9273 5.54768C29.7265 5.54768 28.0989 6.80627 28.0392 8.53638H29.9066C30.1294 7.65662 30.9655 7.07635 31.8676 7.1744C33.1351 7.1744 33.8455 7.76536 33.8455 8.85281V9.58907L31.2605 9.74327C28.8539 9.88856 27.5525 10.8735 27.5525 12.5867C27.5507 14.3239 28.8949 15.4711 30.822 15.4711L30.8229 15.4613ZM19.7068 3.75517H22.0957C23.8944 3.75517 24.9221 4.71426 24.9221 6.40159C24.9221 8.08892 23.8944 9.05604 22.0876 9.05604H19.7068V3.75517ZM17.6344 2.00812V15.3588H19.7068V10.8075H22.5761C24.9132 10.9332 26.909 9.14072 27.0346 6.8036C27.0418 6.67078 27.0427 6.53886 27.0373 6.40605C27.1479 4.09477 25.3643 2.13202 23.053 2.0206C22.9166 2.01436 22.7811 2.01525 22.6447 2.02149L17.6344 2.00812ZM10.7559 4.49945C9.56503 4.43081 8.54621 5.17599 7.9811 5.17599C7.41598 5.17599 6.54245 4.53421 5.60029 4.55204C4.3524 4.58413 3.21503 5.27493 2.61159 6.36772C1.32715 8.57739 2.27733 11.8486 3.51899 13.6465C4.12689 14.5379 4.85601 15.5139 5.81422 15.4791C6.72162 15.4453 7.08172 14.8882 8.17808 14.8882C9.27445 14.8882 9.59979 15.4791 10.5589 15.4613C11.5519 15.4444 12.1776 14.5699 12.7873 13.6786C13.2169 13.0475 13.5512 12.3567 13.7802 11.6285C12.6099 11.1168 11.8513 9.96433 11.8451 8.68702C11.8629 7.56035 12.453 6.52104 13.4121 5.93007C12.8006 5.06189 11.8193 4.52886 10.7577 4.49143L10.7559 4.49945ZM10.0125 3.32019C9.49105 3.97712 8.69328 4.35416 7.85452 4.33901C7.80104 3.52074 8.07915 2.71585 8.62554 2.10439C9.16927 1.47331 9.93583 1.07755 10.7648 1C10.8236 1.84144 10.5535 2.67218 10.0107 3.31752" fill="white"/>
</svg>
