<svg width="44" height="18" viewBox="0 0 44 18" fill="none" xmlns="http://www.w3.org/2000/svg">
<path fill-rule="evenodd" clip-rule="evenodd" d="M23.4766 2.43925L20.4532 3.08811V0.636848L23.4766 0V2.43925ZM29.7641 3.79703C28.5837 3.79703 27.8248 4.34977 27.4032 4.73428L27.2466 3.98929H24.5966V18L27.608 17.3631L27.62 13.9626C28.0536 14.275 28.6921 14.7196 29.7521 14.7196C31.9082 14.7196 33.8716 12.9893 33.8716 9.18021C33.8596 5.69556 31.8721 3.79703 29.7641 3.79703ZM29.0413 12.076C28.3307 12.076 27.9091 11.8236 27.62 11.5112L27.6079 7.05329C27.9211 6.70482 28.3547 6.4645 29.0413 6.4645C30.1375 6.4645 30.8963 7.69014 30.8963 9.26423C30.8963 10.8744 30.1495 12.076 29.0413 12.076ZM43.3636 9.30036C43.3636 6.22427 41.8699 3.79703 39.0151 3.79703C36.1483 3.79703 34.4138 6.22427 34.4138 9.27633C34.4138 12.8932 36.4615 14.7196 39.4006 14.7196C40.834 14.7196 41.9181 14.3952 42.7372 13.9385V11.5353C41.9181 11.9439 40.9786 12.1962 39.7861 12.1962C38.6176 12.1962 37.5817 11.7877 37.4492 10.3698H43.3395C43.3395 10.3036 43.3438 10.1534 43.3488 9.98033L43.3488 9.97977V9.97962L43.3488 9.97927L43.3488 9.97892L43.3488 9.97862L43.3488 9.97839C43.3556 9.74316 43.3636 9.46616 43.3636 9.30036ZM37.413 8.15879C37.413 6.80098 38.2442 6.23623 39.003 6.23623C39.7378 6.23623 40.5208 6.80098 40.5208 8.15879H37.413ZM20.4529 4.00138H23.4764V14.5154H20.4529V4.00138ZM17.0203 4.0014L17.213 4.89059C17.9237 3.59286 19.333 3.85721 19.7185 4.0014V6.76508C19.3451 6.63291 18.1405 6.46468 17.4298 7.38992V14.5154H14.4185V4.0014H17.0203ZM11.1901 1.39381L8.251 2.01865L8.23895 11.6435C8.23895 13.4218 9.576 14.7316 11.3587 14.7316C12.3465 14.7316 13.0692 14.5513 13.4667 14.3351V11.8958C13.0812 12.052 11.1781 12.6048 11.1781 10.8264V6.5607H13.4667V4.00129H11.1781L11.1901 1.39381ZM4.07138 6.40451C3.43296 6.40451 3.04751 6.58475 3.04751 7.05337C3.04751 7.56504 3.71088 7.79011 4.53387 8.06935C5.87554 8.52456 7.64142 9.12371 7.64889 11.3431C7.64889 13.494 5.92638 14.7316 3.42092 14.7316C2.38501 14.7316 1.25273 14.5273 0.1325 14.0467V11.1869C1.14432 11.7396 2.42114 12.1482 3.42092 12.1482C4.09547 12.1482 4.57729 11.9679 4.57729 11.4152C4.57729 10.8484 3.85817 10.5894 2.99001 10.2766C1.66786 9.80032 0 9.19948 0 7.19757C0 5.07073 1.62614 3.79703 4.07138 3.79703C5.07115 3.79703 6.05888 3.95324 7.05866 4.34977V7.17353C6.1432 6.68088 4.98683 6.40451 4.07138 6.40451Z" fill="white"/>
</svg>
