<svg width="80" height="80" viewBox="0 0 80 80" fill="none" xmlns="http://www.w3.org/2000/svg">
<rect width="80" height="80" rx="40" fill="#26A212"/>
<g clip-path="url(#clip0_4_2711)">
<path d="M50.6667 29.3333H29.3333C27.8533 29.3333 26.68 30.52 26.68 32L26.6667 48C26.6667 49.48 27.8533 50.6667 29.3333 50.6667H34.6667C35.4 50.6667 36 50.0667 36 49.3333C36 48.6 35.4 48 34.6667 48H29.3333V40H53.3333V32C53.3333 30.5333 52.1333 29.3333 50.6667 29.3333ZM50.6667 34.6667H29.3333V32H50.6667V34.6667ZM43.9067 49.56L41.08 46.7333C40.56 46.2133 39.72 46.2133 39.2 46.7333C38.68 47.2533 38.68 48.0933 39.2 48.6133L42.9733 52.3867C43.4933 52.9067 44.3333 52.9067 44.8533 52.3867L52.4 44.84C52.92 44.32 52.92 43.48 52.4 42.96C51.88 42.44 51.04 42.44 50.52 42.96L43.9067 49.56Z" fill="white"/>
</g>
<defs>
<clipPath id="clip0_4_2711">
<rect width="32" height="32" fill="white" transform="translate(24 24)"/>
</clipPath>
</defs>
</svg>
